# xmcd CD database file
#
# Track frame offsets:
#	150
#	25811
#	53792
#	76351
#	107982
#	126102
#	149894
#	170462
#	197739
#	221085
#
# Disc length: 3134 seconds
#
# Revision: 0
# Processed by: cddbd v1.5.2PL0 Copyright (c) Steve Scherf et al.
# Submitted via: CDex 1.51
#
DISCID=960c3c0a
DTITLE=Norma Winstone - Glauco Venier - Klaus Gesing - Distances
DYEAR=2008
DGENRE=Jazz
TTITLE0=Distance
TTITLE1=Every Time We Say Goodbye
TTITLE2=Drifter
TTITLE3=Giant's Gentle Stride
TTITLE4=Gorizia
TTITLE5=Ciant
TTITLE6=The Mermaid
TTITLE7=Here Comes The Flood
TTITLE8=Remembering The Start Of A Never Ending Story
TTITLE9=A Song For England
EXTD=YEAR: 2008
EXTT0=
EXTT1=
EXTT2=
EXTT3=
EXTT4=
EXTT5=
EXTT6=
EXTT7=
EXTT8=
EXTT9=
PLAYORDER=
